<svg width="64" height="64" viewBox="0 0 64 64" fill="none" xmlns="http://www.w3.org/2000/svg">
<g clip-path="url(#clip0_82_2)">
<rect width="64" height="64" rx="8" fill="#FACC15"/>
<path d="M50 10H14C12.9391 10 11.9217 10.4214 11.1716 11.1716C10.4214 11.9217 10 12.9391 10 14V50C10 51.0609 10.4214 52.0783 11.1716 52.8284C11.9217 53.5786 12.9391 54 14 54H50C51.0609 54 52.0783 53.5786 52.8284 52.8284C53.5786 52.0783 54 51.0609 54 50V14C54 12.9391 53.5786 11.9217 52.8284 11.1716C52.0783 10.4214 51.0609 10 50 10ZM50 30H34V14H50V30ZM30 14V30H14V14H30ZM14 34H30V50H14V34ZM50 50H34V34H50V50Z" fill="#0C0A09"/>
</g>
<defs>
<clipPath id="clip0_82_2">
<rect width="64" height="64" rx="8" fill="white"/>
</clipPath>
</defs>
</svg>
